<svg width="44" height="50" viewBox="0 0 44 50" fill="none" xmlns="http://www.w3.org/2000/svg">
<path d="M34.1137 26.0173C35.2257 27.0299 36.6871 27.5724 38.1909 27.5308C39.6948 27.4893 41.1239 26.8669 42.1782 25.7944C43.2324 24.7219 43.8297 23.2828 43.8444 21.7795C43.8592 20.2762 43.2903 18.8257 42.2573 17.7328L25.9131 1.6683C24.8265 0.6017 23.3644 0.00408083 21.8413 0.00408076C20.3182 0.0040807 18.856 0.6017 17.7695 1.6683L1.74688 17.4113C0.688003 18.4989 0.0972586 19.9576 0.101108 21.475C0.104953 22.9924 0.703078 24.4481 1.76745 25.5303C2.83183 26.6126 4.27787 27.2355 5.79606 27.2656C7.31424 27.2958 8.78392 26.7309 9.8905 25.6917L16.1448 19.5557L16.2629 44.2383C16.269 45.0008 16.4254 45.7546 16.7231 46.4568C17.0208 47.1589 17.4539 47.7955 17.9978 48.3304C18.5417 48.8652 19.1857 49.2878 19.8931 49.5739C20.6004 49.86 21.3571 50.0041 22.1202 49.998C22.8832 49.9918 23.6376 49.8356 24.3402 49.5381C25.0428 49.2406 25.6799 48.8077 26.2151 48.2642C26.7503 47.7207 27.1731 47.0771 27.4595 46.3703C27.7458 45.6635 27.89 44.9072 27.8838 44.1447L27.7698 19.7917L34.1137 26.0173Z" fill="#FFFDFD"/>
</svg>
