<svg width="469" height="469" viewBox="0 0 469 469" fill="none" xmlns="http://www.w3.org/2000/svg">
<mask id="mask0_200_209" style="mask-type:alpha" maskUnits="userSpaceOnUse" x="-1" y="0" width="468" height="467">
<path d="M429.649 234.5C451.382 234.5 469.336 216.761 465.706 195.333C460.21 162.892 447.922 131.82 429.48 104.219C403.712 65.6555 367.089 35.599 324.239 17.8503C281.39 0.1015 234.24 -4.54238 188.751 4.50585C143.263 13.5541 101.479 35.888 68.6834 68.6835C35.888 101.479 13.554 143.263 4.50583 188.751C-4.54242 234.24 0.101471 281.39 17.8502 324.239C35.599 367.089 65.6554 403.712 104.219 429.48C131.82 447.922 162.892 460.21 195.333 465.706C216.761 469.336 234.5 451.382 234.5 429.649C234.5 407.917 216.609 390.787 195.566 385.356C178.695 381.001 162.584 373.825 147.943 364.042C122.322 346.923 102.353 322.59 90.5607 294.122C78.7687 265.653 75.6833 234.327 81.6949 204.105C87.7064 173.883 102.545 146.123 124.334 124.334C146.122 102.545 173.883 87.7064 204.105 81.6949C234.327 75.6834 265.653 78.7687 294.122 90.5607C322.59 102.353 346.923 122.322 364.042 147.943C373.825 162.584 381.001 178.696 385.355 195.566C390.787 216.609 407.917 234.5 429.649 234.5Z" fill="white"/>
<path d="M132.065 234.046C117.859 234.046 106.084 245.675 108.907 259.597C112.215 275.916 118.677 291.519 128.018 305.498C142.15 326.649 162.236 343.133 185.737 352.867C209.238 362.602 235.097 365.149 260.045 360.186C284.993 355.224 307.91 342.974 325.896 324.988C343.883 307.001 356.132 284.085 361.095 259.137C366.057 234.188 363.51 208.329 353.776 184.828C344.042 161.328 327.557 141.241 306.407 127.109C292.427 117.768 276.824 111.306 260.506 107.998C246.583 105.176 234.954 116.951 234.954 131.157C234.954 145.363 246.779 156.478 260.203 161.126C266.395 163.27 272.32 166.205 277.826 169.884C290.516 178.363 300.407 190.415 306.247 204.515C312.088 218.616 313.616 234.131 310.639 249.1C307.661 264.069 300.312 277.819 289.52 288.611C278.728 299.403 264.978 306.752 250.009 309.73C235.04 312.707 219.524 311.179 205.424 305.339C191.324 299.498 179.272 289.607 170.793 276.917C167.114 271.411 164.179 265.486 162.035 259.295C157.387 245.871 146.271 234.046 132.065 234.046Z" fill="white"/>
</mask>
<g mask="url(#mask0_200_209)">
<rect x="-34" y="-32" width="542" height="552" fill="url(#paint0_linear_200_209)"/>
</g>
<circle cx="234.129" cy="234.13" r="37.0458" transform="rotate(45 234.129 234.13)" fill="white"/>
<defs>
<linearGradient id="paint0_linear_200_209" x1="53.8791" y1="56.5" x2="386.379" y2="389" gradientUnits="userSpaceOnUse">
<stop stop-color="#538FDC"/>
<stop offset="1" stop-color="#9B4FA8"/>
</linearGradient>
</defs>
</svg>
